<?xml version="1.0" encoding="UTF-8" standalone="no"?>
<!-- Created with Inkscape (http://www.inkscape.org/) -->

<svg
   version="1.1"
   id="svg2"
   xml:space="preserve"
   width="620"
   height="568"
   viewBox="0 0 620 568"
   xmlns="http://www.w3.org/2000/svg"
   xmlns:svg="http://www.w3.org/2000/svg"><defs
     id="defs6" /><g
     id="g8"
     transform="matrix(0,1.3333333,1.3333333,0,0,0)"><g
       id="g10"
       transform="matrix(0.1,0,0,0.1,36.915073,148.21713)"><path
         d="m 251.914,-1266.8 c -389.355,213.69 210.539,340.03 518.02,556.183 C 380.125,-498.301 -79.9922,-660.582 202.84,-339.824 -185.43,-606.762 47.1445,-646.438 464.813,-706.109 102.09,-783.602 -168.672,-1139 251.914,-1266.8 Z m 1217.296,289.921 c 0,35.543 9.67,68.191 25.81,93.902 -178.54,-82.933 -442.91,-50.632 -351.14,153.446 108.52,241.316 458.76,56.883 559.6,28.258 108.73,-30.864 266.57,54.23 35.71,221.601 261.96,-122.922 134.9,-299.418 -29.01,-288.676 -103.21,6.762 -380.42,145.621 -453.51,5.723 -64.73,-123.898 243.71,-64.172 329.92,-64.172 64.83,0 117.38,-67.195 117.38,-150.082 0,-82.891 -52.55,-150.081 -117.38,-150.081 -64.83,0 -117.38,67.19 -117.38,150.081 z m 34.89,20.125 c 0,52.324 33.18,94.742 74.11,94.742 40.92,0 74.1,-42.418 74.1,-94.742 0,-52.326 -33.18,-94.746 -74.1,-94.746 -40.93,0 -74.11,42.42 -74.11,94.746 z m 971.21,-49.776 c 0,115.835 38.14,220.452 99.47,295.163 l -150.47,238.84 c -20,-48 -40,-96 -60,-144 14.12,85.906 28.5,171.636 -6,294 68.22,-43.411 134.79,-53.668 201,-56.996 -28,-23 -56,-46.004 -84,-69.004 l 168.45,-198.489 c 46.96,32.801 101.01,51.493 158.55,51.493 144.27,0 266.72,-117.446 310.14,-280.422 -59.78,81.996 -145.68,133.422 -241.14,133.422 -42.97,0 -83.99,-10.434 -121.58,-29.368 l 196.58,-231.639 c -96.78,36.339 -121.87,-14.53 -144,-69 l -144.85,229.932 c -69.3,-75.363 -113.15,-186.702 -113.15,-310.922 0,-45.66 5.93,-89.56 16.86,-130.59 -53.31,73.13 -85.86,170.57 -85.86,277.58 z M 221.047,352.824 c 42.25,178.41 143.391,317.379 261.465,339.41 C 638.57,721.355 765.078,535.191 765.078,276.43 765.078,17.6641 638.57,-215.715 482.512,-244.836 363.469,-267.051 261.633,-163.988 220.016,0.992188 202.863,-132.145 167.691,-237.25 124.801,-278.715 158.68,-189.566 180.613,-53.2383 180.613,95.7539 180.613,346.609 118.438,538.367 41.7422,524.055 30.6094,521.977 19.7813,515.645 9.40625,505.609 32.5703,566.559 61.3203,605.457 92.4609,611.27 150.566,622.109 200.332,514.641 221.047,352.824 Z m 27.199,-114.676 c 0,182.407 89.176,346.918 199.188,367.45 110.007,20.527 199.187,-110.703 199.187,-293.114 0,-182.41 -89.18,-346.9176 -199.187,-367.4488 C 337.422,-75.4922 248.246,55.7383 248.246,238.148 Z M 1238.8,-353.301 c -134.87,223.071 396.99,120.75 563.47,250.887 -383.51,-44.371 -779.8,122.9257 -572.56,207.898 79.11,32.438 467.38,-30.1871 574.62,121.133 -228.95,-51.137 -457.65,-30.656 -544.15,5.051 -117.5,48.504 -61.19,144.457 46.55,168.457 74.65,16.629 214.54,0.227 338.5,-6.348 73.32,-66.777 173.7,-127.562 341.05,-162.66 -95.61,39.965 -172.57,97.578 -238.86,160.477 36.05,0.933 67.69,4.355 91.87,11.883 135.46,42.171 147.38,148.746 100.76,263.222 4.97,-183.582 -116.46,-206.566 -270.85,-194.254 -107.74,119.524 -190.7,239.485 -297.92,283.672 -108.95,44.91 -313.05,-14.59 -175.63,-267.535 -27.06,-9.574 -51.28,-23.34 -71.69,-42.656 -102.71,-97.207 -56.87,-204.227 64.46,-276.887 -271.397,-68.668 -159.56,-296.644 52.44,-292.016 -369.911,-131.257 -127.93,-229.164 -2.06,-230.324 z m 321.02,838.153 c -84.4,11.234 -171.93,24.308 -249.93,22.269 -136.38,121.938 -66.26,243.668 91.39,139.496 64.22,-42.437 107.67,-101.004 158.54,-161.765 z m 1304.16,-21.969 c 0,75.801 52.38,137.25 117,137.25 64.62,0 117,-61.449 117,-137.25 0,-50.606 -23.35,-94.805 -58.1,-118.602 34.64,-46.328 88.79,-49.91 103.94,-138.984 -18.69,49.281 -100.1,54.328 -178.92,112.363 -139.68,-27.918 -328.86,7.977 -435.61,-42.488 C 2326.8,179.445 2718.34,22.9023 3101.85,67.2734 2935.37,-62.8633 2403.51,39.457 2538.38,-183.613 c -125.87,1.16 -367.85,99.0661 2.06,230.3239 -211.99,-4.6289 -325.33,244.3521 -53.94,313.0161 161.81,45.617 297.14,7.484 418.27,-0.977 -24.97,25.168 -40.79,62.484 -40.79,104.133 z m 59.48,27 c 0,40.18 27.77,72.75 62.02,72.75 34.25,0 62.01,-32.57 62.01,-72.75 0,-40.176 -27.76,-72.746 -62.01,-72.746 -34.25,0 -62.02,32.57 -62.02,72.746 z M 15.1445,1691.21 c 20.1563,27.39 42.9141,42.83 67.0078,42.83 51.1797,0 96.3477,-69.59 123.2927,-175.71 l 357.614,67.44 c 25.906,120.34 74.097,201.24 129.277,201.24 24.09,0 46.848,-15.44 67.004,-42.83 -81.024,-4.83 -146.156,-184.05 -146.156,-404.44 0,-158.24 33.574,-295.24 82.5,-361.72 -1.114,-0.07 -2.231,-0.12 -3.348,-0.12 -62.258,0 -115.621,102.98 -138.109,249.42 L 220.398,1175.27 C 197.988,1028.34 144.539,924.93 82.1523,924.93 c -1.125,0 -2.2382,0.05 -3.3515,0.117 48.9262,66.488 82.5042,203.483 82.5042,361.723 0,220.39 -65.137,399.61 -146.1605,404.44 z M 226.207,1438.06 c 3.547,-34.55 5.453,-70.96 5.453,-108.58 0,-4.16 -0.035,-8.3 -0.082,-12.43 l 311.563,79.41 c -0.2,8.6 -0.317,17.26 -0.317,26 0,27.68 1.031,54.71 2.989,80.83 z m 892.183,-81.41 c 0,171.77 117.62,311.01 262.72,311.01 87.32,0 164.68,-50.45 212.45,-128.05 -12.06,179.81 -55.08,330.41 -113.59,409.93 1.58,0.09 3.16,0.16 4.75,0.16 117.1,0 212.03,-256.87 212.03,-573.73 0,-316.86 -94.93,-573.724 -212.03,-573.724 -34.17,0 -66.44,21.899 -95.02,60.746 74.22,4.422 139.03,112.063 175.62,271.958 -47.41,-55.22 -112.44,-89.31 -184.21,-89.31 -145.1,0 -262.72,139.25 -262.72,311.01 z M 1626,937.898 c 25.15,-34.179 53.55,-53.449 83.61,-53.449 103.04,0 186.57,226.021 186.57,504.841 0,278.8 -83.53,504.83 -186.57,504.83 -1.4,0 -2.79,-0.07 -4.18,-0.15 61.05,-82.96 102.95,-253.92 102.95,-451.38 0,-275.03 -81.28,-498.668 -182.38,-504.692 z m -416.57,449.662 c 0,97.08 66.49,175.79 148.5,175.79 82.01,0 148.49,-78.71 148.49,-175.79 0,-97.08 -66.48,-175.79 -148.49,-175.79 -82.01,0 -148.5,78.71 -148.5,175.79 z m 1336.84,393.91 c 2.42,0.12 4.85,0.19 7.3,0.19 1.68,0 3.36,-0.03 5.02,-0.09 90.73,17.9 125,72.59 129.12,168.97 33.61,-112.69 13.51,-173.47 -30.7,-210.66 41.54,-37.85 68.4,-97.95 68.4,-165.61 0,-91.27 -48.84,-168.76 -116.69,-196.49 57.38,-33.59 96.94,-104.58 96.94,-186.72 0,-70 -28.74,-131.9 -72.75,-169.45 42.21,-37.403 60.73,-97.958 27.86,-208.2 -4.28,99.895 -40.92,155.004 -139.27,170.778 v 0.003 c -28.95,2.477 -55.93,13.614 -79.15,31.269 91.52,4.63 164.55,95.61 164.55,207.21 0,56.08 -18.45,106.96 -48.42,144.28 -1.63,-0.05 -3.27,-0.09 -4.91,-0.09 -33.62,0 -64.98,11.66 -91.47,31.8 91.52,4.62 164.55,95.61 164.55,207.21 0,72.8 -31.09,136.83 -78.1,173.84 l -0.1,0.04 0.03,0.01 z m 303,-12 c 2.42,0.12 4.85,0.2 7.3,0.2 1.68,0 3.35,-0.04 5.02,-0.1 90.73,17.9 124.99,72.59 129.12,168.97 33.61,-112.69 13.51,-173.47 -30.7,-210.66 41.54,-37.85 68.4,-97.95 68.4,-165.61 0,-91.27 -48.84,-168.76 -116.69,-196.49 57.38,-33.59 96.94,-104.58 96.94,-186.71 0,-70.01 -28.74,-131.91 -72.75,-169.46 42.21,-37.403 60.73,-97.958 27.86,-208.2 -4.28,99.895 -40.92,155.004 -139.27,170.781 v 0 c -28.95,2.477 -55.93,13.618 -79.15,31.279 91.52,4.62 164.55,95.6 164.55,207.2 0,56.08 -18.45,106.96 -48.42,144.28 -1.63,-0.05 -3.27,-0.09 -4.91,-0.09 -33.62,0 -64.98,11.67 -91.47,31.81 91.52,4.62 164.55,95.6 164.55,207.2 0,72.8 -31.09,136.83 -78.11,173.84 l -0.09,0.05 h 0.03 z M 121.52,2333.76 c 28.121,71.83 80.91,120.2 141.402,120.2 90,0 162.961,-107.09 162.961,-239.19 0,-132.1 -72.961,-239.18 -162.961,-239.18 -60.301,0 -112.945,48.07 -141.129,119.52 -45.9336,73.73 -76.7227,209.22 -76.7227,364.19 0,233.72 70.0197,423.18 156.3947,423.18 25.199,0 49.004,-16.15 70.086,-44.8 -84.75,-5.05 -152.883,-192.52 -152.883,-423.06 0,-27.66 0.984,-54.69 2.852,-80.86 z m 38.199,-204.89 c -9.727,28.72 -18.004,61.08 -24.528,96.25 -0.082,2.67 -0.132,5.35 -0.132,8.05 0,92.99 51.363,168.38 114.718,168.38 63.356,0 114.719,-75.39 114.719,-168.38 0,-92.99 -51.363,-168.37 -114.719,-168.37 -36.519,0 -69.047,25.05 -90.058,64.07 z m 493.246,453.59 c -28.121,-71.83 -80.91,-120.21 -141.402,-120.21 -90,0 -162.961,107.09 -162.961,239.19 0,132.1 72.961,239.19 162.961,239.19 60.3,0 112.945,-48.07 141.132,-119.53 45.926,-73.72 76.719,-209.21 76.719,-364.19 0,-233.71 -70.019,-423.18 -156.394,-423.18 -25.2,0 -49.004,16.16 -70.086,44.81 84.75,5.05 152.882,192.51 152.882,423.05 0,27.66 -0.98,54.69 -2.851,80.87 z m -38.199,204.88 c 9.722,-28.72 18.004,-61.08 24.523,-96.24 0.09,-2.67 0.137,-5.35 0.137,-8.06 0,-92.99 -51.363,-168.37 -114.719,-168.37 -63.355,0 -114.719,75.38 -114.719,168.37 0,93 51.364,168.38 114.719,168.38 36.52,0 69.047,-25.05 90.059,-64.08 z m 634.804,-839.23 c -134.87,223.07 396.98,120.75 563.47,250.88 -383.51,-44.37 -779.8,122.93 -572.57,207.9 79.11,32.44 467.39,-30.19 574.62,121.14 -228.95,-51.14 -457.64,-30.67 -544.15,5.04 -117.5,48.51 -61.19,144.46 46.55,168.46 121.34,27.03 415.06,-33.23 532.56,3.35 135.47,42.17 147.38,148.75 100.77,263.23 11.05,-409.02 -605.07,-21.06 -816.1,-220.78 -102.71,-97.2 -56.87,-204.22 64.46,-276.88 -271.391,-68.67 -159.55,-296.65 52.44,-292.02 -369.909,-131.26 -127.92,-229.16 -2.05,-230.32 z m 1089.35,180.92 c 54.62,60.94 194.26,109.65 339.81,132.84 44.78,-87.11 116.82,-139.97 186.97,-127.32 1.32,0.24 2.62,0.51 3.92,0.79 -45.78,24.03 -86.94,72.79 -114.16,136.31 171.86,16.38 332.56,-6.28 350.86,-90.04 140.61,141.91 -201.5,214.55 -379.51,191.53 -6.17,40.43 -6.3,79.63 -1.25,115.51 234.33,25.93 482.85,184.29 352.82,298.53 8.22,-85.25 -143.36,-156.45 -316.85,-192.05 22.28,36.53 53.03,61.71 89.81,69.64 -27.01,14.18 -55.63,19.76 -83.93,14.65 -48.13,-8.69 -86.32,-46.58 -109.27,-100.93 -129.89,-15.31 -257.04,-9.15 -326.79,27.05 95.39,-113.52 207.85,-123.9 304.4,-119.83 -3.24,-34.73 -1.77,-72.11 5.14,-110.41 1.09,-6.06 2.32,-12.04 3.64,-17.96 -83.24,-9.34 -321.33,-128.14 -305.61,-228.31"
         style="fill:#231f20;fill-opacity:1;fill-rule:evenodd;stroke:none"
         id="path12" /></g></g></svg>
